<svg width="16" height="18" viewBox="0 0 16 18" fill="none" xmlns="http://www.w3.org/2000/svg">
<path d="M11.8893 5.66645V4.02756C11.8893 3.51686 11.7887 3.01117 11.5933 2.53935C11.3979 2.06753 11.1114 1.63882 10.7503 1.2777C10.3892 0.916584 9.96047 0.630131 9.48865 0.434696C9.01682 0.239261 8.51113 0.138672 8.00043 0.138672C7.48974 0.138672 6.98404 0.239261 6.51222 0.434696C6.0404 0.630131 5.61169 0.916584 5.25057 1.2777C4.88946 1.63882 4.603 2.06753 4.40757 2.53935C4.21213 3.01117 4.11154 3.51686 4.11154 4.02756V7.91645C4.11154 8.06379 4.17008 8.2051 4.27426 8.30929C4.37845 8.41347 4.51976 8.472 4.6671 8.472C4.81444 8.472 4.95575 8.41347 5.05994 8.30929C5.16412 8.2051 5.22266 8.06379 5.22266 7.91645V6.77756H9.6671V5.66645H5.22266V4.02756C5.22266 3.29085 5.51531 2.58431 6.03625 2.06338C6.55718 1.54244 7.26372 1.24978 8.00043 1.24978C8.73715 1.24978 9.44368 1.54244 9.96462 2.06338C10.4856 2.58431 10.7782 3.29085 10.7782 4.02756V7.88867C10.7782 8.03601 10.8367 8.17732 10.9409 8.28151C11.0451 8.3857 11.1864 8.44423 11.3338 8.44423C11.4811 8.44423 11.6224 8.3857 11.7266 8.28151C11.8308 8.17732 11.8893 8.03601 11.8893 7.88867V6.77756H14.6671V16.7776H1.33377V6.77756H3.00043V5.66645H0.222656V16.8276C0.222656 17.109 0.334451 17.3789 0.533448 17.5779C0.732445 17.7769 1.00234 17.8887 1.28377 17.8887H14.7171C14.9985 17.8887 15.2684 17.7769 15.4674 17.5779C15.6664 17.3789 15.7782 17.109 15.7782 16.8276V5.66645H11.8893Z" fill="#FFFDF5"/>
</svg>
