<?xml version="1.0" encoding="UTF-8" standalone="no"?>
<!DOCTYPE svg PUBLIC "-//W3C//DTD SVG 20010904//EN" "http://www.w3.org/TR/2001/REC-SVG-20010904/DTD/svg10.dtd">
<svg version="1.0" xmlns="http://www.w3.org/2000/svg" width="160.000000pt" height="51.000000pt" viewBox="0 0 160.000000 51.000000" preserveAspectRatio="xMidYMid meet">

<g transform="translate(0.000000,51.000000) scale(0.100000,-0.100000)" fill="#000000" stroke="none">
<path d="M100 305 c0 -12 15 -15 71 -15 52 0 70 -3 67 -12 -3 -9 -30 -14 -77 -16 -66 -3 -73 -5 -81 -28 -20 -52 -17 -54 80 -54 100 0 90 -6 118 79 17 53 4 61 -94 61 -68 0 -84 -3 -84 -15z m120 -90 c0 -11 -12 -15 -50 -15 -38 0 -50 4 -50 15 0 11 12 15 50 15 38 0 50 -4 50 -15z"/>
<path d="M323 250 c-29 -37 -53 -71 -53 -74 0 -3 11 -6 24 -6 18 0 34 13 57 45 36 50 44 54 59 26 16 -30 12 -40 -12 -35 -16 4 -12 -1 12 -15 38 -22 70 -27 70 -11 0 5 -14 39 -32 75 -42 86 -57 85 -125 -5z"/>
<path d="M531 301 c-11 -11 -25 -39 -32 -62 -12 -37 -11 -43 6 -55 22 -16 112 -19 150 -4 44 17 74 120 39 134 -9 3 -45 6 -80 6 -50 0 -68 -4 -83 -19z m126 -56 c-10 -34 -11 -35 -64 -35 -56 0 -59 3 -43 44 9 24 15 26 64 26 l54 0 -11 -35z"/>
<path d="M720 254 c-25 -81 -25 -76 3 -72 14 2 23 11 25 25 3 20 10 22 64 25 82 4 94 28 14 28 -43 0 -56 3 -56 15 0 12 15 15 75 15 60 0 75 3 75 15 0 12 -17 15 -90 15 l-89 0 -21 -66z"/>
<path d="M926 265 c-9 -30 -19 -61 -22 -70 -5 -13 8 -15 90 -15 57 0 96 4 96 10 0 6 -30 10 -71 10 -52 0 -70 3 -67 13 3 7 30 14 68 17 87 7 95 30 10 30 -45 0 -61 3 -58 13 3 7 29 13 70 15 47 2 68 7 72 17 4 13 -10 15 -84 15 l-89 0 -15 -55z"/>
<path d="M1128 260 c-23 -75 -22 -80 2 -80 15 0 22 11 31 45 6 25 14 45 18 45 3 -1 21 -21 39 -46 27 -36 39 -45 59 -42 21 2 28 11 38 45 28 93 28 95 4 91 -16 -2 -26 -15 -37 -45 -7 -24 -17 -43 -20 -43 -4 1 -22 21 -40 45 -48 66 -72 62 -94 -15z"/>
<path d="M1357 313 c-6 -10 -37 -114 -37 -125 0 -4 42 -8 94 -8 l94 0 11 31 c16 47 15 49 -29 49 -29 0 -40 -4 -40 -15 0 -8 7 -15 15 -15 9 0 12 -6 9 -15 -4 -11 -21 -15 -55 -15 -55 0 -53 -2 -38 51 l12 38 75 3 c49 2 77 7 80 16 3 9 -20 12 -92 12 -52 0 -97 -3 -99 -7z"/>
</g>
</svg>