<svg width="138" height="20" viewBox="0 0 138 20" fill="none" xmlns="http://www.w3.org/2000/svg">
<path d="M6.15234 6.83105C6.15234 7.48535 6.03841 8.0599 5.81055 8.55469C5.58594 9.04948 5.26367 9.43034 4.84375 9.69727C4.42383 9.96419 3.9388 10.0977 3.38867 10.0977C2.55859 10.0977 1.88802 9.80143 1.37695 9.20898C0.865885 8.61328 0.610352 7.81087 0.610352 6.80176V6.06934C0.610352 5.42155 0.724284 4.84863 0.952148 4.35059C1.18327 3.84928 1.50879 3.46517 1.92871 3.19824C2.34863 2.92806 2.83203 2.79297 3.37891 2.79297C3.92578 2.79297 4.40755 2.9248 4.82422 3.18848C5.24414 3.45215 5.56803 3.82487 5.7959 4.30664C6.02376 4.78841 6.14258 5.34668 6.15234 5.98145V6.83105ZM5.55176 6.05957C5.55176 5.20345 5.35807 4.53288 4.9707 4.04785C4.58333 3.56283 4.05273 3.32031 3.37891 3.32031C2.7181 3.32031 2.19076 3.56445 1.79688 4.05273C1.40625 4.53776 1.21094 5.21647 1.21094 6.08887V6.83105C1.21094 7.67415 1.40625 8.3431 1.79688 8.83789C2.1875 9.32943 2.7181 9.5752 3.38867 9.5752C4.06901 9.5752 4.59961 9.33268 4.98047 8.84766C5.36133 8.35938 5.55176 7.68066 5.55176 6.81152V6.05957ZM11.3232 5.21484H9.39941V10H8.81348V5.21484H6.96289V4.7168H11.3232V5.21484Z" fill="#7D7D7D"/>
<path d="M130.157 9.49219H130.914L130.909 11.7236H130.309V10H124.947V11.7236H124.347V9.49219H124.82C125.182 9.11458 125.473 8.56445 125.694 7.8418C125.919 7.11589 126.054 6.32161 126.1 5.45898L126.227 2.89062H130.157V9.49219ZM125.519 9.49219H129.557V3.40332H126.803L126.705 5.43945C126.663 6.28581 126.537 7.06543 126.329 7.77832C126.124 8.49121 125.854 9.0625 125.519 9.49219ZM131.676 7.28027C131.676 6.77246 131.773 6.3151 131.969 5.9082C132.167 5.5013 132.446 5.18555 132.804 4.96094C133.165 4.73307 133.574 4.61914 134.029 4.61914C134.732 4.61914 135.302 4.86654 135.738 5.36133C136.174 5.85286 136.393 6.50553 136.393 7.31934V7.44141C136.393 7.95247 136.293 8.41309 136.095 8.82324C135.899 9.23014 135.623 9.54427 135.265 9.76562C134.907 9.98698 134.498 10.0977 134.039 10.0977C133.339 10.0977 132.77 9.85189 132.33 9.36035C131.894 8.86556 131.676 8.21126 131.676 7.39746V7.28027ZM132.262 7.44141C132.262 8.07292 132.424 8.59212 132.75 8.99902C133.079 9.40267 133.508 9.60449 134.039 9.60449C134.566 9.60449 134.993 9.40267 135.318 8.99902C135.647 8.59212 135.812 8.05664 135.812 7.39258V7.28027C135.812 6.87663 135.737 6.50716 135.587 6.17188C135.437 5.83659 135.227 5.5778 134.957 5.39551C134.687 5.20996 134.378 5.11719 134.029 5.11719C133.508 5.11719 133.084 5.32227 132.755 5.73242C132.426 6.13932 132.262 6.67318 132.262 7.33398V7.44141Z" fill="#7D7D7D"/>
<circle cx="3.5" cy="16.5" r="3.5" fill="#514A7E"/>
<line y1="16.5" x2="138" y2="16.5" stroke="#514A7E"/>
</svg>
